<svg width="32" height="32" viewBox="0 0 32 32" fill="none" xmlns="http://www.w3.org/2000/svg">
<path d="M19.9998 30.3334H11.9998C4.75984 30.3334 1.6665 27.24 1.6665 20V12C1.6665 4.76002 4.75984 1.66669 11.9998 1.66669H19.9998C27.2398 1.66669 30.3332 4.76002 30.3332 12V20C30.3332 27.24 27.2398 30.3334 19.9998 30.3334ZM11.9998 3.66669C5.85317 3.66669 3.6665 5.85335 3.6665 12V20C3.6665 26.1467 5.85317 28.3334 11.9998 28.3334H19.9998C26.1465 28.3334 28.3332 26.1467 28.3332 20V12C28.3332 5.85335 26.1465 3.66669 19.9998 3.66669H11.9998Z" fill="url(#paint0_linear_117_1933)"/>
<path d="M16.0002 19.88C15.7469 19.88 15.4935 19.7867 15.2935 19.5867L10.5869 14.88C10.2002 14.4934 10.2002 13.8534 10.5869 13.4667C10.9735 13.08 11.6135 13.08 12.0002 13.4667L16.0002 17.4667L20.0002 13.4667C20.3869 13.08 21.0269 13.08 21.4135 13.4667C21.8002 13.8534 21.8002 14.4934 21.4135 14.88L16.7069 19.5867C16.5069 19.7867 16.2535 19.88 16.0002 19.88Z" fill="url(#paint1_linear_117_1933)"/>
<defs>
<linearGradient id="paint0_linear_117_1933" x1="15.9998" y1="1.66669" x2="15.9998" y2="30.3334" gradientUnits="userSpaceOnUse">
<stop stop-color="#0073FC"/>
<stop offset="0.823023" stop-color="#556AFE"/>
<stop offset="1" stop-color="#8266FF"/>
</linearGradient>
<linearGradient id="paint1_linear_117_1933" x1="16.0002" y1="13.1767" x2="16.0002" y2="19.88" gradientUnits="userSpaceOnUse">
<stop stop-color="#0073FC"/>
<stop offset="0.823023" stop-color="#556AFE"/>
<stop offset="1" stop-color="#8266FF"/>
</linearGradient>
</defs>
</svg>
