<svg width="32" height="32" viewBox="0 0 32 32" fill="none" xmlns="http://www.w3.org/2000/svg">
<path d="M21.5865 2.66666H10.4132C5.55984 2.66666 2.6665 5.55999 2.6665 10.4133V21.5733C2.6665 26.44 5.55984 29.3333 10.4132 29.3333H21.5732C26.4265 29.3333 29.3198 26.44 29.3198 21.5867V10.4133C29.3332 5.55999 26.4398 2.66666 21.5865 2.66666ZM21.4132 18.6667C21.2132 18.8667 20.9598 18.96 20.7065 18.96C20.4532 18.96 20.1998 18.8533 19.9998 18.6667L15.9998 14.6667L11.9998 18.6667C11.6132 19.0533 10.9732 19.0533 10.5865 18.6667C10.1998 18.28 10.1998 17.64 10.5865 17.2533L15.2932 12.5467C15.6798 12.16 16.3198 12.16 16.7065 12.5467L21.4132 17.2533C21.7998 17.64 21.7998 18.2667 21.4132 18.6667Z" fill="url(#paint0_linear_117_1951)"/>
<defs>
<linearGradient id="paint0_linear_117_1951" x1="15.9932" y1="2.66666" x2="15.9932" y2="29.3333" gradientUnits="userSpaceOnUse">
<stop stop-color="#0073FC"/>
<stop offset="0.823023" stop-color="#556AFE"/>
<stop offset="1" stop-color="#8266FF"/>
</linearGradient>
</defs>
</svg>
