<svg width="1512" height="863" viewBox="0 0 1512 863" fill="none" xmlns="http://www.w3.org/2000/svg">
<path d="M0 150.796C250.913 252.008 386.164 385.495 464.168 494.696C529.192 585.738 528.038 622.98 597.084 690.904C746.921 838.298 1033.95 939.94 1173.06 813.276C1241.59 750.88 1216.24 671.808 1249.01 522.121C1278.5 387.467 1354.74 202.271 1567.59 1" stroke="url(#paint0_linear_69_4381)" stroke-width="1.32018" stroke-miterlimit="10"/>
<path d="M0.501953 183.45C244.556 270.434 378.455 396.013 456.418 498.211C522.017 584.227 527.35 618.624 600.69 685.38C754.539 825.423 1024.1 922.92 1163.4 804.734C1235.16 743.863 1218.83 666.144 1257.24 516.896C1291.05 385.499 1368.85 203.469 1578.03 4.00391" stroke="url(#paint1_linear_69_4381)" stroke-width="1.32018" stroke-miterlimit="10"/>
<path d="M1.00391 216.101C238.195 288.861 370.845 406.563 448.682 501.727C514.991 582.798 526.545 614.271 604.309 679.857C761.832 812.71 1014.67 906.127 1153.76 796.197C1228.9 736.805 1221.33 660.557 1265.48 511.675C1303.48 383.567 1382.97 204.682 1588.5 7.03052" stroke="url(#paint2_linear_69_4381)" stroke-width="1.32018" stroke-miterlimit="10"/>
<path d="M1.50537 248.755C231.834 307.292 363.366 417.145 440.945 505.269C508.05 581.454 525.608 609.951 607.946 674.328C768.83 800.178 1005.65 889.587 1144.14 787.656C1222.82 729.748 1223.71 655.033 1273.74 506.45C1315.75 381.663 1397.11 205.894 1598.95 10.0437" stroke="url(#paint3_linear_69_4381)" stroke-width="1.32018" stroke-miterlimit="10"/>
<path d="M2.00928 281.405C225.497 325.709 356.044 427.727 433.21 508.761C501.229 580.183 524.596 605.671 611.539 668.804C775.505 787.832 996.966 873.319 1134.47 779.114C1216.85 722.677 1225.91 649.545 1281.95 501.224C1327.85 379.767 1411.21 207.102 1609.37 13.0791" stroke="url(#paint4_linear_69_4381)" stroke-width="1.32018" stroke-miterlimit="10"/>
<path d="M2.51123 314.055C219.118 344.136 348.886 438.313 425.474 512.277C494.552 578.988 523.42 601.455 615.158 663.276C781.956 775.69 988.632 857.326 1124.82 770.577C1211.06 715.646 1227.97 644.085 1290.19 495.999C1339.81 377.867 1425.33 208.315 1619.82 16.0696" stroke="url(#paint5_linear_69_4381)" stroke-width="1.32018" stroke-miterlimit="10"/>
<path d="M3.01318 346.705C212.757 362.539 341.928 448.854 417.738 515.792C488.028 577.857 522.166 597.311 618.773 657.752C788.199 763.746 980.598 841.623 1115.18 762.036C1205.4 708.679 1229.94 638.624 1298.43 490.778C1351.63 375.949 1439.47 209.527 1630.27 19.0869" stroke="url(#paint6_linear_69_4381)" stroke-width="1.32018" stroke-miterlimit="10"/>
<path d="M3.53271 379.36C206.414 380.984 335.205 459.346 410.019 519.307C481.702 576.763 520.858 593.257 622.405 652.228C794.274 752.006 972.852 826.205 1105.55 753.495C1199.9 701.799 1231.74 633.155 1306.69 485.553C1363.3 374.008 1453.57 210.753 1640.72 22.1003" stroke="url(#paint7_linear_69_4381)" stroke-width="1.32018" stroke-miterlimit="10"/>
<path d="M4.0166 412.01C200.035 399.41 328.681 469.737 402.264 522.827C475.554 575.686 519.401 589.33 626.006 646.7C800.182 740.465 965.31 811.077 1095.89 744.958C1194.51 695.03 1233.36 627.64 1314.91 480.328C1374.86 372.026 1467.69 211.947 1651.19 25.113" stroke="url(#paint8_linear_69_4381)" stroke-width="1.32018" stroke-miterlimit="10"/>
<path d="M4.51855 444.647C193.678 417.824 322.415 479.98 394.528 526.329C469.596 574.573 517.908 585.449 629.62 641.163C805.959 729.101 957.958 796.211 1086.24 736.403C1189.23 688.389 1234.85 622.058 1323.14 475.089C1386.29 369.982 1481.81 213.147 1661.62 28.1128" stroke="url(#paint9_linear_69_4381)" stroke-width="1.32018" stroke-miterlimit="10"/>
<path d="M5.02246 477.315C187.342 436.263 316.395 490.077 386.798 529.857C463.879 573.415 516.362 581.734 633.241 635.647C811.661 717.949 950.78 781.648 1076.6 727.879C1184.08 681.947 1236.2 616.425 1331.38 469.877C1397.61 367.91 1495.93 214.372 1672.07 31.1482" stroke="url(#paint10_linear_69_4381)" stroke-width="1.32018" stroke-miterlimit="10"/>
<path d="M5.52441 509.965C180.958 454.685 310.604 499.944 379.062 533.372C458.378 572.107 514.783 578.133 636.856 630.124C817.293 706.96 943.731 767.329 1066.95 719.338C1179.02 675.695 1237.41 610.688 1339.62 464.657C1408.84 365.761 1510.05 215.58 1682.51 34.1567" stroke="url(#paint11_linear_69_4381)" stroke-width="1.32018" stroke-miterlimit="10"/>
<path d="M6.02637 542.62C174.597 473.112 305.012 509.558 371.325 536.892C453.084 570.592 513.127 574.654 640.475 624.6C822.88 696.139 936.773 753.264 1057.31 710.797C1174.03 669.673 1238.48 604.848 1347.86 459.431C1419.98 363.544 1524.17 216.793 1692.96 37.1699" stroke="url(#paint12_linear_69_4381)" stroke-width="1.32018" stroke-miterlimit="10"/>
<path d="M6.52783 575.27C168.24 491.539 299.587 518.891 363.589 540.407C447.976 568.778 511.462 571.307 644.08 619.072C828.426 685.467 929.869 739.411 1047.66 702.26C1169.14 663.919 1239.42 598.881 1356.09 454.206C1431.06 361.25 1538.29 217.992 1703.41 40.1965" stroke="url(#paint13_linear_69_4381)" stroke-width="1.32018" stroke-miterlimit="10"/>
<path d="M7.02979 607.92C161.879 509.96 294.271 527.921 355.834 543.923C442.986 566.57 509.761 568.085 647.69 613.548C833.968 674.944 922.992 725.826 1038 693.718C1164.29 658.463 1240.25 592.782 1364.32 448.967C1442.05 358.866 1552.4 219.2 1713.84 43.1824" stroke="url(#paint14_linear_69_4381)" stroke-width="1.32018" stroke-miterlimit="10"/>
<path d="M7.53174 640.574C155.541 528.387 289 536.643 348.116 547.437C438.099 563.869 508.082 564.995 651.323 608.019C839.523 664.57 916.142 712.43 1028.38 685.181C1159.5 653.336 1241.01 586.557 1372.57 443.76C1453.04 356.427 1566.53 220.425 1724.31 46.2131" stroke="url(#paint15_linear_69_4381)" stroke-width="1.32018" stroke-miterlimit="10"/>
<path d="M8.05664 673.224C149.18 546.813 284.341 561.426 340.403 550.957C432.101 533.829 506.408 562.037 654.964 602.495C845.11 654.291 909.248 699.233 1018.73 676.64C1154.72 648.591 1241.65 580.146 1380.81 438.535C1463.97 353.908 1580.65 221.638 1734.76 49.2444" stroke="url(#paint16_linear_69_4381)" stroke-width="1.32018" stroke-miterlimit="10"/>
<path d="M8.5376 705.875C142.802 565.24 279.574 566.719 332.645 554.473C425.664 533.011 504.69 559.2 658.558 596.972C850.717 644.157 902.273 686.231 1009.09 668.099C1149.92 644.221 1242.22 573.6 1389.05 433.3C1474.88 351.293 1594.77 222.837 1745.2 52.2305" stroke="url(#paint17_linear_69_4381)" stroke-width="1.32018" stroke-miterlimit="10"/>
<path d="M9.03955 738.529C136.441 583.662 274.181 571.492 324.909 557.988C419.602 532.784 503.003 556.49 662.177 591.466C856.354 634.109 895.211 673.378 999.441 659.584C1145.08 640.307 1242.73 566.914 1397.29 428.107C1485.78 348.642 1608.9 224.072 1755.65 55.2749" stroke="url(#paint18_linear_69_4381)" stroke-width="1.32018" stroke-miterlimit="10"/>
<path d="M9.54102 771.179C130.08 602.088 266.53 568.954 317.177 561.503C416.936 546.859 501.342 553.894 665.795 585.933C862.049 624.148 888.026 660.657 989.799 651.034C1140.17 636.801 1243.18 560.01 1405.54 422.859C1496.68 345.86 1623.03 225.271 1766.1 58.2656" stroke="url(#paint19_linear_69_4381)" stroke-width="1.32018" stroke-miterlimit="10"/>
<path d="M10.043 803.829C123.719 620.515 260.223 576.636 309.436 565.023C410.616 541.149 499.69 551.414 669.405 580.405C867.781 614.276 880.679 648.075 980.149 642.493C1135.15 633.797 1243.6 553.007 1413.77 417.647C1507.57 343.032 1637.14 226.493 1776.55 61.2922" stroke="url(#paint20_linear_69_4381)" stroke-width="1.32018" stroke-miterlimit="10"/>
<path d="M10.5449 836.484C117.362 638.941 253.487 584.327 301.699 568.538C403.717 535.114 498.07 549.044 673.025 574.872C873.58 604.477 873.16 635.593 970.508 633.947C1129.98 631.232 1243.98 545.814 1422.01 412.417C1518.47 340.141 1651.26 227.691 1787 64.2961" stroke="url(#paint21_linear_69_4381)" stroke-width="1.32018" stroke-miterlimit="10"/>
<defs>
<linearGradient id="paint0_linear_69_4381" x1="783.797" y1="1" x2="783.797" y2="870.722" gradientUnits="userSpaceOnUse">
<stop stop-color="#58A8F7"/>
<stop offset="1" stop-color="#2C2399"/>
</linearGradient>
<linearGradient id="paint1_linear_69_4381" x1="789.266" y1="4.00391" x2="789.266" y2="857.629" gradientUnits="userSpaceOnUse">
<stop stop-color="#58A8F7"/>
<stop offset="1" stop-color="#2C2399"/>
</linearGradient>
<linearGradient id="paint2_linear_69_4381" x1="794.751" y1="7.03052" x2="794.751" y2="844.691" gradientUnits="userSpaceOnUse">
<stop stop-color="#58A8F7"/>
<stop offset="1" stop-color="#2C2399"/>
</linearGradient>
<linearGradient id="paint3_linear_69_4381" x1="800.227" y1="10.0437" x2="800.227" y2="831.92" gradientUnits="userSpaceOnUse">
<stop stop-color="#58A8F7"/>
<stop offset="1" stop-color="#2C2399"/>
</linearGradient>
<linearGradient id="paint4_linear_69_4381" x1="805.691" y1="13.0791" x2="805.691" y2="819.329" gradientUnits="userSpaceOnUse">
<stop stop-color="#58A8F7"/>
<stop offset="1" stop-color="#2C2399"/>
</linearGradient>
<linearGradient id="paint5_linear_69_4381" x1="811.167" y1="16.0696" x2="811.167" y2="806.924" gradientUnits="userSpaceOnUse">
<stop stop-color="#58A8F7"/>
<stop offset="1" stop-color="#2C2399"/>
</linearGradient>
<linearGradient id="paint6_linear_69_4381" x1="816.641" y1="19.0869" x2="816.641" y2="794.708" gradientUnits="userSpaceOnUse">
<stop stop-color="#58A8F7"/>
<stop offset="1" stop-color="#2C2399"/>
</linearGradient>
<linearGradient id="paint7_linear_69_4381" x1="822.126" y1="22.1003" x2="822.126" y2="782.682" gradientUnits="userSpaceOnUse">
<stop stop-color="#58A8F7"/>
<stop offset="1" stop-color="#2C2399"/>
</linearGradient>
<linearGradient id="paint8_linear_69_4381" x1="827.604" y1="25.113" x2="827.604" y2="770.849" gradientUnits="userSpaceOnUse">
<stop stop-color="#58A8F7"/>
<stop offset="1" stop-color="#2C2399"/>
</linearGradient>
<linearGradient id="paint9_linear_69_4381" x1="833.067" y1="28.1128" x2="833.067" y2="759.186" gradientUnits="userSpaceOnUse">
<stop stop-color="#58A8F7"/>
<stop offset="1" stop-color="#2C2399"/>
</linearGradient>
<linearGradient id="paint10_linear_69_4381" x1="838.545" y1="31.1482" x2="838.545" y2="747.737" gradientUnits="userSpaceOnUse">
<stop stop-color="#58A8F7"/>
<stop offset="1" stop-color="#2C2399"/>
</linearGradient>
<linearGradient id="paint11_linear_69_4381" x1="844.019" y1="34.1567" x2="844.019" y2="736.451" gradientUnits="userSpaceOnUse">
<stop stop-color="#58A8F7"/>
<stop offset="1" stop-color="#2C2399"/>
</linearGradient>
<linearGradient id="paint12_linear_69_4381" x1="849.495" y1="37.1699" x2="849.495" y2="725.343" gradientUnits="userSpaceOnUse">
<stop stop-color="#58A8F7"/>
<stop offset="1" stop-color="#2C2399"/>
</linearGradient>
<linearGradient id="paint13_linear_69_4381" x1="854.969" y1="40.1965" x2="854.969" y2="714.398" gradientUnits="userSpaceOnUse">
<stop stop-color="#58A8F7"/>
<stop offset="1" stop-color="#2C2399"/>
</linearGradient>
<linearGradient id="paint14_linear_69_4381" x1="860.436" y1="43.1824" x2="860.436" y2="703.64" gradientUnits="userSpaceOnUse">
<stop stop-color="#58A8F7"/>
<stop offset="1" stop-color="#2C2399"/>
</linearGradient>
<linearGradient id="paint15_linear_69_4381" x1="865.919" y1="46.2131" x2="865.919" y2="693.049" gradientUnits="userSpaceOnUse">
<stop stop-color="#58A8F7"/>
<stop offset="1" stop-color="#2C2399"/>
</linearGradient>
<linearGradient id="paint16_linear_69_4381" x1="871.406" y1="49.2444" x2="871.406" y2="682.631" gradientUnits="userSpaceOnUse">
<stop stop-color="#58A8F7"/>
<stop offset="1" stop-color="#2C2399"/>
</linearGradient>
<linearGradient id="paint17_linear_69_4381" x1="876.871" y1="52.2305" x2="876.871" y2="705.875" gradientUnits="userSpaceOnUse">
<stop stop-color="#58A8F7"/>
<stop offset="1" stop-color="#2C2399"/>
</linearGradient>
<linearGradient id="paint18_linear_69_4381" x1="882.347" y1="55.2749" x2="882.347" y2="738.529" gradientUnits="userSpaceOnUse">
<stop stop-color="#58A8F7"/>
<stop offset="1" stop-color="#2C2399"/>
</linearGradient>
<linearGradient id="paint19_linear_69_4381" x1="887.822" y1="58.2656" x2="887.822" y2="771.179" gradientUnits="userSpaceOnUse">
<stop stop-color="#58A8F7"/>
<stop offset="1" stop-color="#2C2399"/>
</linearGradient>
<linearGradient id="paint20_linear_69_4381" x1="893.296" y1="61.2922" x2="893.296" y2="803.829" gradientUnits="userSpaceOnUse">
<stop stop-color="#58A8F7"/>
<stop offset="1" stop-color="#2C2399"/>
</linearGradient>
<linearGradient id="paint21_linear_69_4381" x1="898.772" y1="64.2961" x2="898.772" y2="836.484" gradientUnits="userSpaceOnUse">
<stop stop-color="#58A8F7"/>
<stop offset="1" stop-color="#2C2399"/>
</linearGradient>
</defs>
</svg>
