<svg width="17" height="17" viewBox="0 0 17 17" fill="none" xmlns="http://www.w3.org/2000/svg">
<g opacity="0.65">
<mask id="mask0_53_6082" style="mask-type:luminance" maskUnits="userSpaceOnUse" x="0" y="0" width="17" height="17">
<rect x="0.713379" y="0.675293" width="15.4994" height="15.4994" fill="white"/>
</mask>
<g mask="url(#mask0_53_6082)">
<path d="M8.4631 1.78244C4.18259 1.78244 0.713379 5.33327 0.713379 9.71449C0.713379 12.3094 1.93033 14.6132 3.81327 16.0601L3.81478 16.057C3.90711 16.1298 4.02366 16.1748 4.14929 16.1748C4.4505 16.1748 4.69419 15.9253 4.69419 15.6171C4.69419 15.4126 4.58672 15.2344 4.42628 15.1368C3.85413 14.6906 3.35464 14.1499 2.9505 13.5395L3.61952 13.1445C3.85111 13.0082 3.92981 12.7045 3.79662 12.4675C3.66342 12.2304 3.36675 12.1499 3.13517 12.2862L2.46615 12.6813C2.10742 11.9252 1.88189 11.0902 1.82135 10.2102H2.59026C2.85817 10.2102 3.07462 9.9887 3.07462 9.71449C3.07462 9.44028 2.85817 9.21874 2.59026 9.21874H1.82135C1.8834 8.33568 2.11045 7.49909 2.46917 6.73997L3.13517 7.13348C3.36675 7.26981 3.66342 7.18925 3.79662 6.95222C3.92981 6.71518 3.85111 6.41154 3.61952 6.2752L2.95505 5.88325C3.42729 5.1737 4.02669 4.56021 4.71992 4.07685L5.10287 4.75696C5.23607 4.99399 5.53273 5.07455 5.76432 4.93822C5.9959 4.80189 6.07461 4.49824 5.94141 4.26121L5.55695 3.57955C6.29711 3.21083 7.11446 2.97999 7.97874 2.91648V3.70348C7.97874 3.9777 8.19519 4.19924 8.4631 4.19924C8.73101 4.19924 8.94745 3.9777 8.94745 3.70348V2.91648C9.80719 2.97999 10.623 3.21083 11.3617 3.57645L10.9757 4.26121C10.8425 4.49824 10.9212 4.80189 11.1528 4.93822C11.3844 5.07455 11.681 4.99399 11.8142 4.75696L12.2002 4.0722C12.8965 4.55556 13.4974 5.1706 13.9711 5.88325L13.3067 6.2752C13.0751 6.41154 12.9964 6.71518 13.1296 6.95222C13.2628 7.18925 13.5594 7.26981 13.791 7.13348L14.457 6.73997C14.8173 7.49754 15.0428 8.33568 15.1048 9.21874H14.3359C14.068 9.21874 13.8516 9.44028 13.8516 9.71449C13.8516 9.9887 14.068 10.2102 14.3359 10.2102H15.1048C15.0428 11.0918 14.8173 11.9252 14.46 12.6813L13.791 12.2862C13.5594 12.1499 13.2628 12.2304 13.1296 12.4675C12.9964 12.7045 13.0751 13.0082 13.3067 13.1445L13.9757 13.5395C13.561 14.1654 13.0478 14.7154 12.459 15.1678L12.4621 15.1724C12.3304 15.2747 12.2471 15.4358 12.2471 15.6171C12.2471 15.9253 12.4908 16.1748 12.792 16.1748C12.9434 16.1748 13.0811 16.1113 13.181 16.0075C15.0246 14.5589 16.2128 12.2785 16.2128 9.71449C16.2128 5.33327 12.7436 1.78244 8.4631 1.78244Z" fill="white"/>
<path d="M10.8488 7.18611L8.94618 8.70745C8.80088 8.63309 8.63589 8.59281 8.46334 8.59281C7.86092 8.59281 7.37354 9.09166 7.37354 9.70825C7.37354 10.3248 7.86092 10.8237 8.46334 10.8237C9.06576 10.8237 9.55314 10.3248 9.55314 9.70825C9.55314 9.63544 9.54709 9.56572 9.53347 9.49756L11.4452 7.96692C11.6556 7.79805 11.6934 7.48666 11.5284 7.27132C11.3634 7.05597 11.0592 7.01724 10.8488 7.18611Z" fill="white"/>
</g>
</g>
</svg>
