<svg width="15" height="15" viewBox="0 0 15 15" fill="none" xmlns="http://www.w3.org/2000/svg">
<g clip-path="url(#clip0_2035_6751)">
<path d="M0 12.195C0 12.975 0.275 13.635 0.825 14.175C1.375 14.715 2.04 14.99 2.82 15H12.195C12.965 15 13.625 14.725 14.175 14.175C14.725 13.625 15 12.965 15 12.195V2.82C15 2.04 14.725 1.375 14.175 0.825C13.625 0.275 12.965 0 12.195 0H2.82C2.04 0 1.375 0.275 0.825 0.825C0.275 1.375 0 2.04 0 2.82V4.695H1.875V2.82C1.875 2.56 1.965 2.34 2.145 2.16C2.325 1.98 2.55 1.885 2.82 1.875H12.195C12.445 1.875 12.665 1.97 12.855 2.16C13.045 2.35 13.135 2.57 13.125 2.82V12.195C13.125 12.455 13.035 12.675 12.855 12.855C12.675 13.035 12.455 13.125 12.195 13.125H2.82C2.56 13.125 2.335 13.035 2.145 12.855C1.955 12.675 1.865 12.455 1.875 12.195V10.32H0L0 12.195ZM0 8.445H3.75V10.32L7.5 7.5L3.75 4.695V6.57H0V8.445Z" fill="#01BE2A"/>
</g>
<defs>
<clipPath id="clip0_2035_6751">
<rect width="15" height="15" fill="white"/>
</clipPath>
</defs>
</svg>
