<svg width="50" height="50" viewBox="0 0 50 50" fill="none" xmlns="http://www.w3.org/2000/svg">
<path fill-rule="evenodd" clip-rule="evenodd" d="M14.6741 0.306822C10.6044 0.490446 7.07703 1.48544 4.22873 4.3217C1.37049 7.17287 0.387854 10.7142 0.203771 14.7416C0.089341 17.2553 -0.579785 36.2456 1.36054 41.2259C2.66902 44.5857 5.2461 47.169 8.63669 48.4817C10.2188 49.0971 12.0249 49.5137 14.6741 49.6353C36.8262 50.6378 45.0377 50.092 48.5004 41.2259C49.1149 39.6477 49.5378 37.8432 49.6547 35.2005C50.6671 12.9917 49.4906 8.17784 45.6298 4.3217C42.5676 1.26706 38.9655 -0.812299 14.6741 0.306822ZM14.8781 45.1687C12.4527 45.0595 11.1367 44.6554 10.2586 44.3155C8.04964 43.4569 6.39042 41.8045 5.53718 39.6084C4.05954 35.8243 4.54962 17.8512 4.68146 14.943C4.81082 12.0943 5.38793 9.49081 7.39791 7.48087C9.88551 4.99943 13.0994 3.7833 34.9828 4.77092C37.8386 4.89994 40.4481 5.47588 42.4631 7.48087C44.9507 9.96229 46.1845 13.201 45.1795 35.0003C45.0701 37.4197 44.6646 38.7325 44.3238 39.6084C42.0725 45.3777 36.8933 46.1786 14.8781 45.1687ZM35.2242 11.724C35.2242 13.3667 36.56 14.7025 38.2093 14.7025C39.8586 14.7025 41.1969 13.3667 41.1969 11.724C41.1969 10.0813 39.8586 8.74673 38.2093 8.74673C36.56 8.74673 35.2242 10.0813 35.2242 11.724ZM12.1567 24.9698C12.1567 32.0071 17.8757 37.7127 24.9305 37.7127C31.9853 37.7127 37.7043 32.0071 37.7043 24.9698C37.7043 17.9325 31.9853 12.2306 24.9305 12.2306C17.8757 12.2306 12.1567 17.9325 12.1567 24.9698ZM16.6393 24.9698C16.6393 20.404 20.3508 16.6996 24.9305 16.6996C29.5102 16.6996 33.2217 20.404 33.2217 24.9698C33.2217 29.5381 29.5102 33.2437 24.9305 33.2437C20.3508 33.2437 16.6393 29.5381 16.6393 24.9698Z" fill="url(#paint0_linear_97_6490)"/>
<defs>
<linearGradient id="paint0_linear_97_6490" x1="25" y1="0" x2="25" y2="50" gradientUnits="userSpaceOnUse">
<stop stop-color="#0073FC"/>
<stop offset="0.823023" stop-color="#556AFE"/>
<stop offset="1" stop-color="#8266FF"/>
</linearGradient>
</defs>
</svg>
