<svg width="16" height="16" viewBox="0 0 16 16" fill="none" xmlns="http://www.w3.org/2000/svg">
<path fill-rule="evenodd" clip-rule="evenodd" d="M13.5926 12.6582C13.5942 12.6557 13.5962 12.6533 13.5983 12.6509C13.6003 12.6484 13.6023 12.646 13.604 12.6435C14.6685 11.3775 15.3088 9.74582 15.3088 7.96299C15.3088 6.18015 14.6685 4.54846 13.6056 3.28244C13.604 3.28 13.6019 3.27797 13.5999 3.27594L13.5999 3.27593C13.5979 3.2739 13.5958 3.27187 13.5942 3.26943L13.5871 3.26097L13.587 3.26096L13.587 3.26095L13.587 3.26091C13.5719 3.24301 13.5577 3.22616 13.5422 3.2093C13.539 3.20524 13.5357 3.20158 13.5324 3.19792C13.5292 3.19427 13.526 3.19061 13.5227 3.18655L13.4561 3.11017L13.4544 3.10854C13.4423 3.0948 13.4298 3.08106 13.4173 3.06732L13.4172 3.0673L13.4172 3.06728L13.4172 3.06725L13.4172 3.06723L13.4172 3.06721L13.4171 3.06719L13.4171 3.06716L13.4171 3.06714L13.4171 3.06712L13.4171 3.0671L13.417 3.06708L13.417 3.06705L13.417 3.06703L13.417 3.06701L13.417 3.06699L13.4169 3.06696L13.4169 3.06694L13.4169 3.06692L13.4169 3.0669L13.4169 3.06688L13.4168 3.06685C13.4043 3.05312 13.3918 3.03939 13.3797 3.02566L13.3781 3.02403L13.378 3.02398C13.326 2.96874 13.274 2.9135 13.2204 2.85989L13.2188 2.85826L13.1408 2.78025L13.1359 2.77538C13.1115 2.751 13.0872 2.72825 13.0628 2.70549L13.0628 2.70548C13.0546 2.69736 13.0465 2.68924 13.0368 2.68111C13.0205 2.66487 13.0043 2.65025 12.988 2.63563L12.988 2.63561L12.9829 2.63085C12.9791 2.62743 12.9751 2.62377 12.9718 2.61936C11.6749 1.41672 9.93753 0.682129 8.02793 0.682129C6.11833 0.682129 4.381 1.41672 3.08247 2.61936L3.07737 2.62412C3.07358 2.62754 3.06953 2.6312 3.06622 2.63561C3.04997 2.65024 3.03372 2.66649 3.01746 2.68274L3.01746 2.68274C3.00933 2.69087 3.00121 2.69899 2.99146 2.70712C2.97927 2.71849 2.96708 2.73028 2.95489 2.74206C2.9427 2.75384 2.93052 2.76562 2.91833 2.777L2.91345 2.78188L2.83544 2.85989L2.83382 2.86151C2.78019 2.91514 2.72818 2.9704 2.67617 3.02566L2.67455 3.02728C2.64855 3.05491 2.62417 3.08253 2.59979 3.11016L2.59979 3.11017L2.59816 3.11179C2.57541 3.13617 2.55266 3.16217 2.53153 3.18817C2.52828 3.19224 2.52503 3.19589 2.52178 3.19955C2.51853 3.20321 2.51528 3.20686 2.51203 3.21093C2.50309 3.22068 2.49456 3.23084 2.48602 3.24099C2.47749 3.25115 2.46896 3.26131 2.46002 3.27106C2.4584 3.2735 2.45637 3.27553 2.45433 3.27756L2.45433 3.27756C2.4523 3.27959 2.45027 3.28162 2.44865 3.28406C1.3874 4.54846 0.74707 6.18015 0.74707 7.96299C0.74707 9.74582 1.3874 11.3775 2.45027 12.6435C2.4519 12.646 2.45393 12.6484 2.45596 12.6509C2.45799 12.6533 2.46002 12.6557 2.46165 12.6582L2.51203 12.7183C2.51528 12.7224 2.51853 12.726 2.52178 12.7297C2.52503 12.7333 2.52828 12.737 2.53153 12.7411L2.59816 12.8174C2.59816 12.8179 2.5983 12.8182 2.5985 12.8185L2.59898 12.8191L2.5994 12.8195C2.59962 12.8198 2.59979 12.8202 2.59979 12.8207C2.62417 12.8483 2.64854 12.8759 2.67455 12.9019L2.67617 12.9036C2.72818 12.9588 2.78019 13.0141 2.83219 13.0677L2.83382 13.0693L2.85958 13.0955L2.8596 13.0955L2.85968 13.0956L2.85974 13.0956C2.87648 13.1127 2.89298 13.1296 2.9102 13.1457L2.91508 13.1506C2.96871 13.2042 3.02396 13.2562 3.07922 13.3066C4.381 14.5093 6.11833 15.2438 8.02793 15.2438C9.93753 15.2438 11.6749 14.5093 12.9734 13.3066C13.0286 13.2562 13.0823 13.2042 13.1359 13.1506L13.1408 13.1457L13.1669 13.12C13.1841 13.1032 13.201 13.0866 13.2172 13.0693L13.2188 13.0677C13.2724 13.0141 13.3244 12.9588 13.3748 12.9036L13.3764 12.9019C13.3886 12.8882 13.4012 12.8748 13.4138 12.8614L13.4138 12.8613C13.4264 12.8479 13.439 12.8345 13.4512 12.8207C13.4512 12.8199 13.4516 12.8195 13.452 12.8191C13.4524 12.8187 13.4528 12.8182 13.4528 12.8174C13.4756 12.7931 13.4983 12.7671 13.5195 12.7411C13.5227 12.737 13.526 12.7333 13.5292 12.7297C13.5325 12.726 13.5357 12.7224 13.539 12.7183C13.5585 12.6972 13.5763 12.6777 13.5926 12.6582ZM13.6594 10.3406C13.4351 10.8704 13.1393 11.3612 12.7785 11.8065C12.3738 11.4571 11.9302 11.1516 11.454 10.8981C11.6425 10.1358 11.7595 9.29887 11.7904 8.41802H14.1225C14.0738 9.08272 13.9178 9.72792 13.6594 10.3406ZM11.7904 7.50793H14.1225C14.0738 6.84323 13.9178 6.19803 13.6594 5.58533C13.4351 5.05552 13.1393 4.56471 12.7785 4.11941C12.3738 4.46882 11.9302 4.77436 11.454 5.02789C11.6425 5.79011 11.7595 6.62708 11.7904 7.50793ZM10.4056 2.33168C11.0508 2.60471 11.6375 2.98175 12.1544 3.45631C11.8537 3.71309 11.5303 3.93899 11.189 4.13564C10.9338 3.4043 10.6072 2.76885 10.2269 2.26017C10.287 2.28292 10.3471 2.3073 10.4056 2.33168ZM8.48301 13.9843C8.63415 13.9242 8.78367 13.8348 8.93319 13.7178C9.27773 13.4448 9.60927 13.0238 9.89205 12.4973C10.0724 12.1641 10.2285 11.7952 10.3634 11.3954C9.76041 11.1581 9.13146 11.0151 8.48301 10.9696V13.9843ZM9.89205 3.42869C10.0708 3.76348 10.2285 4.1324 10.3634 4.53057C9.76041 4.76785 9.13146 4.91086 8.48301 4.95637V1.94326C8.63253 2.0034 8.78367 2.09116 8.93319 2.2098C9.27773 2.4812 9.60927 2.90213 9.89205 3.42869ZM8.48301 8.41802V10.0578C9.22735 10.1033 9.94243 10.261 10.6104 10.5145L10.6153 10.495C10.7648 9.83356 10.8542 9.13635 10.8802 8.41802H8.48301ZM8.48301 7.50793V5.86811C9.22735 5.82261 9.94243 5.66496 10.6104 5.41143L10.6153 5.43093C10.7648 6.09239 10.8542 6.78797 10.8802 7.50793H8.48301ZM7.57292 10.0578V8.41802H5.17576C5.20176 9.13798 5.29115 9.83356 5.44066 10.495L5.44554 10.5145C6.11349 10.261 6.82858 10.1033 7.57292 10.0578ZM5.17576 7.50793C5.20176 6.78959 5.29115 6.09239 5.44066 5.43093L5.44554 5.41143C6.11349 5.66496 6.82695 5.82261 7.57292 5.86811V7.50793H5.17576ZM7.57257 13.9827V10.9696C6.92412 11.0151 6.29517 11.1565 5.6906 11.3938C5.82549 11.7919 5.98313 12.1609 6.1619 12.4956C6.44468 13.0222 6.77785 13.4448 7.12239 13.7162C7.27191 13.8348 7.42305 13.9226 7.57257 13.9827ZM7.57288 4.95636C6.92443 4.91086 6.29548 4.76784 5.69253 4.53056C5.82742 4.13076 5.98344 3.76185 6.16384 3.42868C6.44662 2.90212 6.77816 2.47957 7.12432 2.20816C7.27384 2.09115 7.42336 2.00176 7.5745 1.94163V4.95636H7.57288ZM5.69027 2.31527L5.64995 2.33168C5.00475 2.60471 4.41806 2.98175 3.90124 3.45631C4.2019 3.71309 4.52532 3.94062 4.86661 4.13564C5.12176 3.4043 5.44843 2.76885 5.82872 2.26017C5.7821 2.27781 5.73646 2.29642 5.69029 2.31526L5.69027 2.31527ZM2.39653 5.58533C2.6208 5.05552 2.91659 4.56471 3.27738 4.11941C3.68205 4.46882 4.12573 4.77436 4.60191 5.02789C4.41339 5.79011 4.29637 6.62708 4.2655 7.50793H1.93335C1.9821 6.84323 2.13812 6.19803 2.39653 5.58533ZM4.2655 8.41802H1.93335C1.9821 9.08272 2.13812 9.72792 2.39653 10.3406C2.6208 10.8704 2.91659 11.3612 3.27738 11.8065C3.68205 11.4571 4.12573 11.1516 4.60191 10.8981C4.41339 10.1358 4.29637 9.29887 4.2655 8.41802ZM5.64995 13.5943C5.00475 13.3212 4.41806 12.9442 3.90124 12.4696C4.2019 12.2128 4.52532 11.9869 4.86661 11.7903C5.12176 12.5216 5.44843 13.1571 5.82872 13.6658C5.76859 13.643 5.70846 13.6186 5.64995 13.5943ZM10.3653 13.6107C10.3787 13.6052 10.3921 13.5997 10.4056 13.5943C11.0508 13.3212 11.6375 12.9442 12.1544 12.4696C11.8537 12.2128 11.5303 11.9853 11.189 11.7903C10.9338 12.5216 10.6072 13.1571 10.2269 13.6658C10.2735 13.6481 10.3191 13.6295 10.3653 13.6107Z" fill="black" fill-opacity="0.65"/>
</svg>
