<svg width="410" height="70" viewBox="0 0 410 70" fill="none" xmlns="http://www.w3.org/2000/svg">
<path d="M26.0407 70C12.3681 70 0.130371 61.5601 0.130371 40.0385C0.130371 18.5169 12.3681 10.0771 26.0407 10.0771C34.6493 10.0771 38.3629 14.4658 43.68 14.4658V22.9057L43.4268 22.99C40.8104 15.563 33.9742 11.3431 26.0407 11.3431C13.2121 11.3431 8.14822 22.3149 8.14822 40.0385C8.14822 58.0998 18.9512 67.7212 29.8386 67.7212C37.0804 67.225 39.1791 64.3178 46.3171 61.7222C40.0189 65.921 35.4933 70 26.0407 70Z" fill="url(#paint0_linear_97_6576)"/>
<path fill-rule="evenodd" clip-rule="evenodd" d="M29.4854 37.7428H37.0513V56.0229C34.396 55.3197 31.497 54.3086 29.4854 52.8503V37.7428Z" fill="url(#paint1_linear_97_6576)"/>
<path fill-rule="evenodd" clip-rule="evenodd" d="M29.4854 37.7426H37.0513V56.0229C34.396 55.3197 31.497 54.3086 29.4854 52.8503V37.7426Z" fill="url(#paint2_linear_97_6576)"/>
<rect x="38.9731" y="28.4292" width="7.56598" height="27.5936" fill="url(#paint3_linear_97_6576)"/>
<path fill-rule="evenodd" clip-rule="evenodd" d="M56.5819 53.8688L55.4721 54.1937H48.6787V22.5808H56.5819V53.8688Z" fill="url(#paint4_linear_97_6576)"/>
<path d="M69.4362 34.2522L70.342 44.3056L60.9321 40.0398L69.4362 34.2522Z" fill="url(#paint5_linear_97_6576)"/>
<path fill-rule="evenodd" clip-rule="evenodd" d="M57.3043 9.13852L56.6716 9.11801C52.7948 6.58457 48.2283 5.22369 43.5491 5.21399C39.3477 5.20529 35.2324 6.28628 31.6214 8.32942C31.0995 8.29545 30.5585 8.27727 29.9967 8.27727C27.2305 8.27727 24.5231 8.61311 21.9639 9.32215C23.4301 7.7388 25.0842 6.31374 26.9002 5.0799C31.7843 1.76155 37.6019 -0.0122833 43.5605 6.40245e-05C49.5192 0.0124113 55.329 1.81034 60.1985 5.1489L57.3043 9.13852Z" fill="url(#paint6_linear_97_6576)"/>
<path fill-rule="evenodd" clip-rule="evenodd" d="M68.113 43.1917C65.63 48.4576 61.5375 52.8512 56.393 55.7741C51.2484 58.6969 45.3021 60.0068 39.3641 59.5253C33.4261 59.0438 27.7852 56.7942 23.2099 53.0832C18.6345 49.3721 15.3473 44.38 13.796 38.787C12.2448 33.194 12.5049 27.272 14.541 21.8279C15.1179 20.2854 15.8294 18.8024 16.664 17.3937C19.1088 14.7849 22.3286 13.2231 26.4294 12.8692L27.9651 12.8317C24.1237 15.5237 21.2013 19.2782 19.5814 23.6095C17.9222 28.0459 17.7102 32.8718 18.9743 37.4296C20.2385 41.9874 22.9172 46.0555 26.6457 49.0797C30.3742 52.1038 34.971 53.937 39.8099 54.3294C44.6488 54.7218 49.4946 53.6544 53.6869 51.2725C57.8792 48.8907 61.2142 45.3102 63.2376 41.019L68.113 43.1917Z" fill="url(#paint7_linear_97_6576)"/>
<path d="M121.933 53.076C119.341 53.076 116.925 52.66 114.685 51.828C112.477 50.964 110.557 49.748 108.925 48.18C107.293 46.612 106.013 44.772 105.085 42.66C104.189 40.548 103.741 38.228 103.741 35.7C103.741 33.172 104.189 30.852 105.085 28.74C106.013 26.628 107.293 24.788 108.925 23.22C110.589 21.652 112.525 20.452 114.733 19.62C116.941 18.756 119.357 18.324 121.981 18.324C124.893 18.324 127.517 18.836 129.853 19.86C132.221 20.852 134.205 22.324 135.805 24.276L130.813 28.884C129.661 27.572 128.381 26.596 126.973 25.956C125.565 25.284 124.029 24.948 122.365 24.948C120.797 24.948 119.357 25.204 118.045 25.716C116.733 26.228 115.597 26.964 114.637 27.924C113.677 28.884 112.925 30.02 112.381 31.332C111.869 32.644 111.613 34.1 111.613 35.7C111.613 37.3 111.869 38.756 112.381 40.068C112.925 41.38 113.677 42.516 114.637 43.476C115.597 44.436 116.733 45.172 118.045 45.684C119.357 46.196 120.797 46.452 122.365 46.452C124.029 46.452 125.565 46.132 126.973 45.492C128.381 44.82 129.661 43.812 130.813 42.468L135.805 47.076C134.205 49.028 132.221 50.516 129.853 51.54C127.517 52.564 124.877 53.076 121.933 53.076ZM151.926 52.884C149.174 52.884 146.726 52.308 144.582 51.156C142.47 50.004 140.79 48.436 139.542 46.452C138.326 44.436 137.718 42.148 137.718 39.588C137.718 36.996 138.326 34.708 139.542 32.724C140.79 30.708 142.47 29.14 144.582 28.02C146.726 26.868 149.174 26.292 151.926 26.292C154.646 26.292 157.078 26.868 159.222 28.02C161.366 29.14 163.046 30.692 164.262 32.676C165.478 34.66 166.086 36.964 166.086 39.588C166.086 42.148 165.478 44.436 164.262 46.452C163.046 48.436 161.366 50.004 159.222 51.156C157.078 52.308 154.646 52.884 151.926 52.884ZM151.926 46.74C153.174 46.74 154.294 46.452 155.286 45.876C156.278 45.3 157.062 44.484 157.638 43.428C158.214 42.34 158.502 41.06 158.502 39.588C158.502 38.084 158.214 36.804 157.638 35.748C157.062 34.692 156.278 33.876 155.286 33.3C154.294 32.724 153.174 32.436 151.926 32.436C150.678 32.436 149.558 32.724 148.566 33.3C147.574 33.876 146.774 34.692 146.166 35.748C145.59 36.804 145.302 38.084 145.302 39.588C145.302 41.06 145.59 42.34 146.166 43.428C146.774 44.484 147.574 45.3 148.566 45.876C149.558 46.452 150.678 46.74 151.926 46.74ZM171.091 52.5V26.676H178.243V33.972L177.235 31.86C178.003 30.036 179.235 28.66 180.931 27.732C182.627 26.772 184.691 26.292 187.123 26.292V33.204C186.803 33.172 186.515 33.156 186.259 33.156C186.003 33.124 185.731 33.108 185.443 33.108C183.395 33.108 181.731 33.7 180.451 34.884C179.203 36.036 178.579 37.844 178.579 40.308V52.5H171.091ZM204.204 52.884C201.26 52.884 198.668 52.308 196.428 51.156C194.22 50.004 192.508 48.436 191.292 46.452C190.076 44.436 189.468 42.148 189.468 39.588C189.468 36.996 190.06 34.708 191.244 32.724C192.46 30.708 194.108 29.14 196.188 28.02C198.268 26.868 200.62 26.292 203.244 26.292C205.772 26.292 208.044 26.836 210.06 27.924C212.108 28.98 213.724 30.516 214.908 32.532C216.092 34.516 216.684 36.9 216.684 39.684C216.684 39.972 216.668 40.308 216.636 40.692C216.604 41.044 216.572 41.38 216.54 41.7H195.564V37.332H212.604L209.724 38.628C209.724 37.284 209.452 36.116 208.908 35.124C208.364 34.132 207.612 33.364 206.652 32.82C205.692 32.244 204.572 31.956 203.292 31.956C202.012 31.956 200.876 32.244 199.884 32.82C198.924 33.364 198.172 34.148 197.628 35.172C197.084 36.164 196.812 37.348 196.812 38.724V39.876C196.812 41.284 197.116 42.532 197.724 43.62C198.364 44.676 199.244 45.492 200.364 46.068C201.516 46.612 202.86 46.884 204.396 46.884C205.772 46.884 206.972 46.676 207.996 46.26C209.052 45.844 210.012 45.22 210.876 44.388L214.86 48.708C213.676 50.052 212.188 51.092 210.396 51.828C208.604 52.532 206.54 52.884 204.204 52.884ZM251.871 53.076C249.279 53.076 246.863 52.66 244.623 51.828C242.415 50.964 240.495 49.748 238.863 48.18C237.231 46.612 235.951 44.772 235.023 42.66C234.127 40.548 233.679 38.228 233.679 35.7C233.679 33.172 234.127 30.852 235.023 28.74C235.951 26.628 237.231 24.788 238.863 23.22C240.527 21.652 242.463 20.452 244.671 19.62C246.879 18.756 249.295 18.324 251.919 18.324C254.831 18.324 257.455 18.836 259.791 19.86C262.159 20.852 264.143 22.324 265.743 24.276L260.751 28.884C259.599 27.572 258.319 26.596 256.911 25.956C255.503 25.284 253.967 24.948 252.303 24.948C250.735 24.948 249.295 25.204 247.983 25.716C246.671 26.228 245.535 26.964 244.575 27.924C243.615 28.884 242.863 30.02 242.319 31.332C241.807 32.644 241.551 34.1 241.551 35.7C241.551 37.3 241.807 38.756 242.319 40.068C242.863 41.38 243.615 42.516 244.575 43.476C245.535 44.436 246.671 45.172 247.983 45.684C249.295 46.196 250.735 46.452 252.303 46.452C253.967 46.452 255.503 46.132 256.911 45.492C258.319 44.82 259.599 43.812 260.751 42.468L265.743 47.076C264.143 49.028 262.159 50.516 259.791 51.54C257.455 52.564 254.815 53.076 251.871 53.076ZM286.165 52.5V47.46L285.685 46.356V37.332C285.685 35.732 285.189 34.484 284.197 33.588C283.237 32.692 281.749 32.244 279.733 32.244C278.357 32.244 276.997 32.468 275.653 32.916C274.341 33.332 273.221 33.908 272.293 34.644L269.605 29.412C271.013 28.42 272.709 27.652 274.693 27.108C276.677 26.564 278.693 26.292 280.741 26.292C284.677 26.292 287.733 27.22 289.909 29.076C292.085 30.932 293.173 33.828 293.173 37.764V52.5H286.165ZM278.293 52.884C276.277 52.884 274.549 52.548 273.109 51.876C271.669 51.172 270.565 50.228 269.797 49.044C269.029 47.86 268.645 46.532 268.645 45.06C268.645 43.524 269.013 42.18 269.749 41.028C270.517 39.876 271.717 38.98 273.349 38.34C274.981 37.668 277.109 37.332 279.733 37.332H286.597V41.7H280.549C278.789 41.7 277.573 41.988 276.901 42.564C276.261 43.14 275.941 43.86 275.941 44.724C275.941 45.684 276.309 46.452 277.045 47.028C277.813 47.572 278.853 47.844 280.165 47.844C281.413 47.844 282.533 47.556 283.525 46.98C284.517 46.372 285.237 45.492 285.685 44.34L286.837 47.796C286.293 49.46 285.301 50.724 283.861 51.588C282.421 52.452 280.565 52.884 278.293 52.884ZM315.214 52.884C313.038 52.884 311.134 52.404 309.502 51.444C307.87 50.484 306.59 49.028 305.662 47.076C304.766 45.092 304.318 42.596 304.318 39.588C304.318 36.548 304.75 34.052 305.614 32.1C306.478 30.148 307.726 28.692 309.358 27.732C310.99 26.772 312.942 26.292 315.214 26.292C317.646 26.292 319.822 26.852 321.742 27.972C323.694 29.06 325.23 30.596 326.35 32.58C327.502 34.564 328.078 36.9 328.078 39.588C328.078 42.308 327.502 44.66 326.35 46.644C325.23 48.628 323.694 50.164 321.742 51.252C319.822 52.34 317.646 52.884 315.214 52.884ZM299.95 61.812V26.676H307.102V31.956L306.958 39.636L307.438 47.268V61.812H299.95ZM313.918 46.74C315.166 46.74 316.27 46.452 317.23 45.876C318.222 45.3 319.006 44.484 319.582 43.428C320.19 42.34 320.494 41.06 320.494 39.588C320.494 38.084 320.19 36.804 319.582 35.748C319.006 34.692 318.222 33.876 317.23 33.3C316.27 32.724 315.166 32.436 313.918 32.436C312.67 32.436 311.55 32.724 310.558 33.3C309.566 33.876 308.782 34.692 308.206 35.748C307.63 36.804 307.342 38.084 307.342 39.588C307.342 41.06 307.63 42.34 308.206 43.428C308.782 44.484 309.566 45.3 310.558 45.876C311.55 46.452 312.67 46.74 313.918 46.74ZM333.091 52.5V26.676H340.579V52.5H333.091ZM336.835 23.076C335.459 23.076 334.339 22.676 333.475 21.876C332.611 21.076 332.179 20.084 332.179 18.9C332.179 17.716 332.611 16.724 333.475 15.924C334.339 15.124 335.459 14.724 336.835 14.724C338.211 14.724 339.331 15.108 340.195 15.876C341.059 16.612 341.491 17.572 341.491 18.756C341.491 20.004 341.059 21.044 340.195 21.876C339.363 22.676 338.243 23.076 336.835 23.076ZM358.088 52.884C355.048 52.884 352.68 52.116 350.984 50.58C349.288 49.012 348.44 46.692 348.44 43.62V20.964H355.928V43.524C355.928 44.612 356.216 45.46 356.792 46.068C357.368 46.644 358.152 46.932 359.144 46.932C360.328 46.932 361.336 46.612 362.168 45.972L364.184 51.252C363.416 51.796 362.488 52.212 361.4 52.5C360.344 52.756 359.24 52.884 358.088 52.884ZM344.456 33.012V27.252H362.36V33.012H344.456ZM384.228 52.5V47.46L383.748 46.356V37.332C383.748 35.732 383.252 34.484 382.26 33.588C381.3 32.692 379.812 32.244 377.796 32.244C376.42 32.244 375.06 32.468 373.716 32.916C372.404 33.332 371.284 33.908 370.356 34.644L367.668 29.412C369.076 28.42 370.772 27.652 372.756 27.108C374.74 26.564 376.756 26.292 378.804 26.292C382.74 26.292 385.796 27.22 387.972 29.076C390.148 30.932 391.236 33.828 391.236 37.764V52.5H384.228ZM376.356 52.884C374.34 52.884 372.612 52.548 371.172 51.876C369.732 51.172 368.628 50.228 367.86 49.044C367.092 47.86 366.708 46.532 366.708 45.06C366.708 43.524 367.076 42.18 367.812 41.028C368.58 39.876 369.78 38.98 371.412 38.34C373.044 37.668 375.172 37.332 377.796 37.332H384.66V41.7H378.612C376.852 41.7 375.636 41.988 374.964 42.564C374.324 43.14 374.004 43.86 374.004 44.724C374.004 45.684 374.372 46.452 375.108 47.028C375.876 47.572 376.916 47.844 378.228 47.844C379.476 47.844 380.596 47.556 381.588 46.98C382.58 46.372 383.3 45.492 383.748 44.34L384.9 47.796C384.356 49.46 383.364 50.724 381.924 51.588C380.484 52.452 378.628 52.884 376.356 52.884ZM398.013 52.5V16.884H405.501V52.5H398.013Z" fill="url(#paint8_linear_97_6576)"/>
<defs>
<linearGradient id="paint0_linear_97_6576" x1="23.2237" y1="10.0771" x2="23.2237" y2="70" gradientUnits="userSpaceOnUse">
<stop stop-color="#4D84DE"/>
<stop offset="1" stop-color="#467FCE"/>
</linearGradient>
<linearGradient id="paint1_linear_97_6576" x1="33.2683" y1="37.7428" x2="33.2683" y2="56.0229" gradientUnits="userSpaceOnUse">
<stop stop-color="#0073FC"/>
<stop offset="0.823023" stop-color="#556AFE"/>
<stop offset="1" stop-color="#8266FF"/>
</linearGradient>
<linearGradient id="paint2_linear_97_6576" x1="33.2683" y1="37.7426" x2="33.2683" y2="56.0227" gradientUnits="userSpaceOnUse">
<stop stop-color="#0073FC"/>
<stop offset="0.823023" stop-color="#556AFE"/>
<stop offset="1" stop-color="#8266FF"/>
</linearGradient>
<linearGradient id="paint3_linear_97_6576" x1="42.7561" y1="28.4292" x2="42.7561" y2="56.0228" gradientUnits="userSpaceOnUse">
<stop stop-color="#0073FC"/>
<stop offset="0.823023" stop-color="#556AFE"/>
<stop offset="1" stop-color="#8266FF"/>
</linearGradient>
<linearGradient id="paint4_linear_97_6576" x1="52.6303" y1="22.5808" x2="52.6303" y2="54.1937" gradientUnits="userSpaceOnUse">
<stop stop-color="#0073FC"/>
<stop offset="0.823023" stop-color="#556AFE"/>
<stop offset="1" stop-color="#8266FF"/>
</linearGradient>
<linearGradient id="paint5_linear_97_6576" x1="69.4362" y1="34.2522" x2="64.6013" y2="44.9175" gradientUnits="userSpaceOnUse">
<stop stop-color="#0073FC"/>
<stop offset="0.823023" stop-color="#556AFE"/>
<stop offset="1" stop-color="#8266FF"/>
</linearGradient>
<linearGradient id="paint6_linear_97_6576" x1="41.0811" y1="0" x2="41.0811" y2="9.32205" gradientUnits="userSpaceOnUse">
<stop stop-color="#0073FC"/>
<stop offset="0.823023" stop-color="#556AFE"/>
<stop offset="1" stop-color="#8266FF"/>
</linearGradient>
<linearGradient id="paint7_linear_97_6576" x1="40.4549" y1="12.8317" x2="40.4549" y2="59.6228" gradientUnits="userSpaceOnUse">
<stop stop-color="#0073FC"/>
<stop offset="0.823023" stop-color="#556AFE"/>
<stop offset="1" stop-color="#8266FF"/>
</linearGradient>
<linearGradient id="paint8_linear_97_6576" x1="255.869" y1="5.5" x2="255.869" y2="64.5" gradientUnits="userSpaceOnUse">
<stop stop-color="#0073FC"/>
<stop offset="0.823023" stop-color="#556AFE"/>
<stop offset="1" stop-color="#8266FF"/>
</linearGradient>
</defs>
</svg>
