<svg width="24" height="25" viewBox="0 0 24 25" fill="none" xmlns="http://www.w3.org/2000/svg">
<g clip-path="url(#clip0_2033_6742)">
<path d="M19 3.43188H5C3.895 3.43188 3 4.32688 3 5.43188V19.4319C3 20.5369 3.895 21.4319 5 21.4319H19C20.105 21.4319 21 20.5369 21 19.4319V5.43188C21 4.32688 20.105 3.43188 19 3.43188ZM19 19.4319H5V5.43188H19V19.4319ZM9 17.4319H7V12.4319H9V17.4319ZM13 17.4319H11V7.43188H13V17.4319ZM17 17.4319H15V10.4319H17V17.4319Z" fill="white"/>
</g>
<defs>
<clipPath id="clip0_2033_6742">
<rect width="24" height="24" fill="white" transform="translate(0 0.431885)"/>
</clipPath>
</defs>
</svg>
