<svg width="17" height="17" viewBox="0 0 17 17" fill="none" xmlns="http://www.w3.org/2000/svg">
<rect width="16.642" height="16.642" fill="white" fill-opacity="0.01"/>
<mask id="mask0_2054_6807" style="mask-type:luminance" maskUnits="userSpaceOnUse" x="2" y="0" width="13" height="17">
<path fill-rule="evenodd" clip-rule="evenodd" d="M2.08301 0V16.642H14.5509V0L2.08301 0Z" fill="white"/>
</mask>
<g mask="url(#mask0_2054_6807)">
<path fill-rule="evenodd" clip-rule="evenodd" d="M13.9666 13.5217H13.512V6.24072C13.512 3.56568 11.4957 1.36356 8.90142 1.07265V0.58509C8.90142 0.261636 8.64007 0 8.31697 0C7.99395 0 7.73251 0.261636 7.73251 0.58509V1.07265C5.13829 1.36356 3.12198 3.56568 3.12198 6.24072V13.5217H2.66746C2.34436 13.5217 2.08301 13.7833 2.08301 14.1066C2.08301 14.4301 2.34436 14.6917 2.66746 14.6917H7.14816V15.4719C7.14816 16.1187 7.67084 16.642 8.31697 16.642C8.96309 16.642 9.48588 16.1187 9.48588 15.4719V14.6917H13.9666C14.2896 14.6917 14.5509 14.4301 14.5509 14.1066C14.5509 13.7833 14.2896 13.5217 13.9666 13.5217ZM12.343 13.5217H4.29079V6.24074C4.29079 4.01428 6.09282 2.2103 8.31686 2.2103C10.541 2.2103 12.343 4.01428 12.343 6.24074V13.5217Z" fill="black" fill-opacity="0.65"/>
</g>
<circle cx="12.5" cy="3.5" r="2.5" fill="#CE0000"/>
</svg>
