<svg width="17" height="18" viewBox="0 0 17 18" fill="none" xmlns="http://www.w3.org/2000/svg">
<rect x="0.209961" y="0.641846" width="16.642" height="16.642" fill="white" fill-opacity="0.01"/>
<mask id="mask0_69_4614" style="mask-type:luminance" maskUnits="userSpaceOnUse" x="2" y="0" width="13" height="18">
<path fill-rule="evenodd" clip-rule="evenodd" d="M2.29346 0.641846V17.2838H14.7614V0.641846L2.29346 0.641846Z" fill="white"/>
</mask>
<g mask="url(#mask0_69_4614)">
<path fill-rule="evenodd" clip-rule="evenodd" d="M14.177 14.1635H13.7224V6.88257C13.7224 4.20752 11.7061 2.0054 9.11187 1.71449V1.22694C9.11187 0.903482 8.85052 0.641846 8.52742 0.641846C8.2044 0.641846 7.94296 0.903482 7.94296 1.22694V1.71449C5.34874 2.0054 3.33243 4.20752 3.33243 6.88257V14.1635H2.87791C2.55481 14.1635 2.29346 14.4251 2.29346 14.7485C2.29346 15.0719 2.55481 15.3336 2.87791 15.3336H7.35861V16.1137C7.35861 16.7605 7.88129 17.2838 8.52742 17.2838C9.17354 17.2838 9.69633 16.7605 9.69633 16.1137V15.3336H14.177C14.5 15.3336 14.7614 15.0719 14.7614 14.7485C14.7614 14.4251 14.5 14.1635 14.177 14.1635ZM12.5535 14.1635H4.50124V6.88258C4.50124 4.65613 6.30327 2.85214 8.52731 2.85214C10.7515 2.85214 12.5535 4.65613 12.5535 6.88258V14.1635Z" fill="black" fill-opacity="0.65"/>
</g>
</svg>
