<svg width="17" height="13" viewBox="0 0 17 13" fill="none" xmlns="http://www.w3.org/2000/svg">
<path fill-rule="evenodd" clip-rule="evenodd" d="M1.80343 0.174805H15.1233C15.7257 0.174805 16.2131 0.685398 16.2131 1.3165V4.86846V5.8833V8.03985V9.05469V11.2112C16.2131 11.8423 15.7257 12.3529 15.1233 12.3529H11.3695H10.4008H6.52591H5.5572H1.80343C1.20101 12.3529 0.713623 11.8423 0.713623 11.2112V9.05469V8.03985V5.8833V4.86846V1.3165C0.713623 0.685398 1.20101 0.174805 1.80343 0.174805ZM6.52602 2.7119V4.86844H10.4009V2.7119H6.52602ZM10.4009 5.88328V8.03983H6.52602V5.88328H10.4009ZM5.55731 2.7119H1.80354V4.86844H5.55731V2.7119ZM1.80354 5.88328H5.55731V8.03983H1.80354V5.88328ZM1.80354 9.05473V11.2113H5.55731V9.05473H1.80354ZM6.52602 11.2113V9.05473H10.4009V11.2113H6.52602ZM11.3697 11.2113H15.1235V9.05473H11.3697V11.2113ZM15.1235 8.03983H11.3697V5.88328H15.1235V8.03983ZM11.3697 2.7119V4.86844H15.1235V2.7119H11.3697Z" fill="white"/>
</svg>
