<svg width="71" height="71" viewBox="0 0 71 71" fill="none" xmlns="http://www.w3.org/2000/svg">
<path d="M0.799988 8.71045V65.3252H46.3381V8.82317L0.799988 8.71045Z" fill="#C3EEE7"/>
<path d="M8.54535 3.40259V59.7093L16.1518 55.2348L23.7603 59.7114L31.3668 55.2348L38.9752 59.7114L46.5817 55.2368L54.1902 59.7134V3.40259H8.54535Z" fill="white"/>
<path d="M38.9752 60.2146C38.8855 60.2145 38.7973 60.1909 38.7196 60.1462L31.3667 55.8186L24.0159 60.1441C23.9384 60.1896 23.8501 60.2136 23.7603 60.2136C23.6704 60.2136 23.5822 60.1896 23.5046 60.1441L16.1518 55.8186L8.79894 60.1441C8.72257 60.1878 8.6361 60.2106 8.54815 60.2104C8.4602 60.2102 8.37384 60.1869 8.29768 60.143C8.22152 60.099 8.15822 60.0358 8.11408 59.9597C8.06995 59.8836 8.04652 59.7973 8.04614 59.7094V3.40262C8.04614 3.26986 8.0986 3.14247 8.1921 3.04822C8.2856 2.95396 8.41256 2.90048 8.54532 2.89941H54.1901C54.3236 2.89941 54.4516 2.95243 54.546 3.0468C54.6403 3.14117 54.6934 3.26916 54.6934 3.40262V31.9847C54.6934 32.1182 54.6403 32.2462 54.546 32.3405C54.4516 32.4349 54.3236 32.4879 54.1901 32.4879C54.0567 32.4879 53.9287 32.4349 53.8343 32.3405C53.74 32.2462 53.6869 32.1182 53.6869 31.9847V3.90583H9.05255V58.8298L15.8962 54.8041C15.9733 54.7586 16.0612 54.7346 16.1508 54.7346C16.2403 54.7346 16.3283 54.7586 16.4054 54.8041L23.7583 59.1297L31.1111 54.8061C31.1882 54.7606 31.2762 54.7366 31.3657 54.7366C31.4553 54.7366 31.5432 54.7606 31.6203 54.8061L39.2288 59.2827C39.3236 59.3389 39.3972 59.4246 39.4385 59.5267C39.4798 59.6289 39.4865 59.7417 39.4575 59.848C39.4284 59.9543 39.3653 60.0481 39.2779 60.115C39.1904 60.182 39.0834 60.2184 38.9732 60.2186L38.9752 60.2146Z" fill="#0A4C70"/>
<path d="M54.6893 67.8572C63.3658 67.8572 70.3994 60.8236 70.3994 52.1471C70.3994 43.4707 63.3658 36.437 54.6893 36.437C46.0129 36.437 38.9792 43.4707 38.9792 52.1471C38.9792 60.8236 46.0129 67.8572 54.6893 67.8572Z" fill="#647CE2"/>
<path d="M39.9796 13.1951H13.9941C13.8606 13.1951 13.7326 13.1421 13.6382 13.0477C13.5439 12.9534 13.4908 12.8254 13.4908 12.6919C13.4908 12.5585 13.5439 12.4305 13.6382 12.3361C13.7326 12.2417 13.8606 12.1887 13.9941 12.1887H39.9796C40.1131 12.1887 40.2411 12.2417 40.3354 12.3361C40.4298 12.4305 40.4828 12.5585 40.4828 12.6919C40.4828 12.8254 40.4298 12.9534 40.3354 13.0477C40.2411 13.1421 40.1131 13.1951 39.9796 13.1951Z" fill="#0A4C70"/>
<path d="M44.4078 23.1182H18.4223C18.2888 23.1182 18.1608 23.0652 18.0665 22.9708C17.9721 22.8765 17.9191 22.7485 17.9191 22.615C17.9191 22.4816 17.9721 22.3536 18.0665 22.2592C18.1608 22.1648 18.2888 22.1118 18.4223 22.1118H44.4078C44.5413 22.1118 44.6693 22.1648 44.7637 22.2592C44.858 22.3536 44.911 22.4816 44.911 22.615C44.911 22.7485 44.858 22.8765 44.7637 22.9708C44.6693 23.0652 44.5413 23.1182 44.4078 23.1182Z" fill="#0A4C70"/>
<path d="M44.4078 33.0416H18.4223C18.2888 33.0416 18.1608 32.9886 18.0665 32.8942C17.9721 32.7998 17.9191 32.6718 17.9191 32.5384C17.9191 32.4049 17.9721 32.2769 18.0665 32.1825C18.1608 32.0882 18.2888 32.0352 18.4223 32.0352H44.4078C44.5413 32.0352 44.6693 32.0882 44.7637 32.1825C44.858 32.2769 44.911 32.4049 44.911 32.5384C44.911 32.6718 44.858 32.7998 44.7637 32.8942C44.6693 32.9886 44.5413 33.0416 44.4078 33.0416Z" fill="#0A4C70"/>
<path d="M31.9988 42.9649H18.4223C18.2888 42.9649 18.1608 42.9119 18.0665 42.8175C17.9721 42.7232 17.9191 42.5952 17.9191 42.4617C17.9191 42.3282 17.9721 42.2002 18.0665 42.1059C18.1608 42.0115 18.2888 41.9585 18.4223 41.9585H31.9988C32.1322 41.9585 32.2602 42.0115 32.3546 42.1059C32.449 42.2002 32.502 42.3282 32.502 42.4617C32.502 42.5952 32.449 42.7232 32.3546 42.8175C32.2602 42.9119 32.1322 42.9649 31.9988 42.9649Z" fill="#0A4C70"/>
<path d="M55.0919 68.7005C52.426 68.699 49.8017 68.0402 47.4512 66.7824C45.1007 65.5246 43.0966 63.7065 41.6165 61.4893C40.1363 59.2721 39.2257 56.7242 38.9652 54.071C38.7048 51.4179 39.1026 48.7415 40.1235 46.2788C41.1443 43.8161 42.7566 41.6431 44.8177 39.9523C46.8787 38.2615 49.3249 37.1049 51.9396 36.5851C54.5543 36.0653 57.2569 36.1983 59.808 36.9722C62.359 37.7462 64.6799 39.1372 66.565 41.0222C66.6118 41.069 66.6489 41.1245 66.6742 41.1856C66.6996 41.2468 66.7126 41.3123 66.7126 41.3784C66.7126 41.4446 66.6996 41.5101 66.6742 41.5713C66.6489 41.6324 66.6118 41.6879 66.565 41.7347C66.5182 41.7815 66.4627 41.8186 66.4016 41.8439C66.3404 41.8693 66.2749 41.8823 66.2088 41.8823C66.1426 41.8823 66.0771 41.8693 66.0159 41.8439C65.9548 41.8186 65.8993 41.7815 65.8525 41.7347C63.4829 39.3688 60.3982 37.8518 57.0778 37.4195C53.7573 36.9873 50.387 37.664 47.4908 39.3444C44.5945 41.0248 42.3344 43.6149 41.0617 46.7121C39.7891 49.8094 39.5751 53.2402 40.4531 56.4715C41.3312 59.7029 43.252 62.5537 45.9171 64.5809C48.5822 66.6081 51.8423 67.6983 55.1907 67.6818C58.5392 67.6654 61.7884 66.5434 64.4335 64.4902C67.0786 62.4369 68.9714 59.5675 69.8178 56.3277C69.8534 56.2011 69.9373 56.0934 70.0513 56.0279C70.1654 55.9623 70.3006 55.944 70.4279 55.9769C70.5553 56.0098 70.6647 56.0913 70.7328 56.2039C70.8008 56.3165 70.8221 56.4512 70.792 56.5793C69.8841 60.0516 67.8506 63.1249 65.0097 65.3182C62.1689 67.5116 58.681 68.701 55.0919 68.7005Z" fill="#0A4C70"/>
<path d="M56.1527 57.5132H50.8891C50.7557 57.5132 50.6277 57.4602 50.5333 57.3658C50.4389 57.2714 50.3859 57.1435 50.3859 57.01C50.3859 56.8765 50.4389 56.7485 50.5333 56.6542C50.6277 56.5598 50.7557 56.5068 50.8891 56.5068H56.1527C56.6419 56.5068 57.1111 56.3124 57.4571 55.9665C57.8031 55.6205 57.9974 55.1513 57.9974 54.662C57.9974 54.1728 57.8031 53.7036 57.4571 53.3576C57.1111 53.0116 56.6419 52.8173 56.1527 52.8173H53.2321C52.4774 52.8167 51.7538 52.5167 51.2201 51.9831C50.6865 51.4494 50.3865 50.7258 50.3859 49.9711V49.6189C50.3886 48.8654 50.6895 48.1437 51.2228 47.6115C51.7562 47.0792 52.4786 46.7799 53.2321 46.7788H58.4896C58.623 46.7788 58.751 46.8318 58.8454 46.9262C58.9397 47.0206 58.9928 47.1486 58.9928 47.282C58.9928 47.4155 58.9397 47.5435 58.8454 47.6378C58.751 47.7322 58.623 47.7852 58.4896 47.7852H53.2321C52.7441 47.7863 52.2765 47.9807 51.9316 48.3259C51.5868 48.6712 51.3929 49.139 51.3923 49.627V49.9792C51.3929 50.467 51.5869 50.9346 51.9318 51.2795C52.2767 51.6244 52.7443 51.8184 53.2321 51.8189H56.1527C56.8947 51.8387 57.5997 52.1473 58.1175 52.6791C58.6353 53.2109 58.9251 53.9238 58.9251 54.6661C58.9251 55.4083 58.6353 56.1213 58.1175 56.6531C57.5997 57.1848 56.8947 57.4935 56.1527 57.5132Z" fill="white"/>
<path d="M54.8403 47.7856C54.7742 47.7859 54.7086 47.773 54.6474 47.7478C54.5862 47.7227 54.5307 47.6856 54.4839 47.6388C54.4371 47.592 54.4001 47.5365 54.3749 47.4753C54.3497 47.4141 54.3368 47.3486 54.3371 47.2824V43.7298C54.3371 43.5963 54.3901 43.4683 54.4845 43.3739C54.5789 43.2796 54.7068 43.2266 54.8403 43.2266C54.9738 43.2266 55.1018 43.2796 55.1961 43.3739C55.2905 43.4683 55.3435 43.5963 55.3435 43.7298V47.2824C55.3438 47.3486 55.3309 47.4141 55.3057 47.4753C55.2806 47.5365 55.2435 47.592 55.1967 47.6388C55.1499 47.6856 55.0944 47.7227 55.0332 47.7478C54.972 47.773 54.9065 47.7859 54.8403 47.7856Z" fill="white"/>
<path d="M54.8403 61.0699C54.7742 61.0702 54.7086 61.0573 54.6474 61.0321C54.5862 61.007 54.5307 60.9699 54.4839 60.9231C54.4371 60.8763 54.4001 60.8208 54.3749 60.7596C54.3497 60.6984 54.3368 60.6329 54.3371 60.5667V57.01C54.3371 56.8766 54.3901 56.7486 54.4845 56.6542C54.5789 56.5599 54.7068 56.5068 54.8403 56.5068C54.9738 56.5068 55.1018 56.5599 55.1961 56.6542C55.2905 56.7486 55.3435 56.8766 55.3435 57.01V60.5647C55.3438 60.6309 55.331 60.6966 55.3058 60.7579C55.2806 60.8192 55.2436 60.8749 55.1968 60.9218C55.1501 60.9688 55.0945 61.006 55.0333 61.0314C54.9722 61.0568 54.9066 61.0699 54.8403 61.0699Z" fill="white"/>
</svg>
