<svg width="18" height="18" viewBox="0 0 18 18" fill="none" xmlns="http://www.w3.org/2000/svg">
<rect x="0.60498" y="0.641846" width="16.642" height="16.642" fill="white" fill-opacity="0.01"/>
<path fill-rule="evenodd" clip-rule="evenodd" d="M12.6936 11.9027L16.0366 15.2441C16.2641 15.4733 16.2641 15.8438 16.0382 16.073C15.9228 16.1867 15.7749 16.2436 15.6238 16.2436C15.4726 16.2436 15.3231 16.1867 15.2094 16.073L11.8663 12.7299C10.7856 13.6254 9.3993 14.1634 7.88624 14.1634C4.43921 14.1634 1.64551 11.3697 1.64551 7.92262C1.64551 4.47559 4.43921 1.68188 7.88624 1.68188C11.3333 1.68188 14.127 4.47559 14.127 7.92262C14.127 9.43567 13.589 10.822 12.6936 11.9027ZM7.88614 12.9932C8.57197 12.9932 9.23505 12.86 9.85912 12.595C10.4637 12.3399 11.0049 11.9742 11.4713 11.5078C11.9377 11.0414 12.3034 10.4985 12.5586 9.8956C12.8235 9.27153 12.9567 8.60845 12.9567 7.92262C12.9567 7.23679 12.8235 6.57371 12.5586 5.94964C12.3034 5.34669 11.9377 4.80388 11.4713 4.33745C11.0049 3.87102 10.4621 3.50535 9.85912 3.25019C9.23505 2.98529 8.57197 2.85202 7.88614 2.85202C7.20031 2.85202 6.53723 2.98529 5.91315 3.25019C5.31021 3.50535 4.76739 3.87102 4.30096 4.33745C3.83453 4.80388 3.46887 5.34669 3.21371 5.94964C2.9488 6.57371 2.81554 7.23679 2.81554 7.92262C2.81554 8.60845 2.9488 9.27153 3.21371 9.8956C3.46887 10.4985 3.83453 11.0414 4.30096 11.5078C4.76739 11.9742 5.31021 12.3399 5.91315 12.595C6.53723 12.86 7.20031 12.9932 7.88614 12.9932Z" fill="black" fill-opacity="0.65"/>
</svg>
