<svg width="20" height="20" viewBox="0 0 20 20" fill="none" xmlns="http://www.w3.org/2000/svg">
<path d="M17.6451 15.5967C17.238 14.6326 16.6474 13.7568 15.9059 13.0183C15.1668 12.2775 14.2911 11.6869 13.3274 11.2791C13.3188 11.2748 13.3102 11.2726 13.3015 11.2683C14.6458 10.2973 15.5197 8.71572 15.5197 6.93127C15.5197 3.97517 13.1246 1.58008 10.1685 1.58008C7.21241 1.58008 4.81732 3.97517 4.81732 6.93127C4.81732 8.71572 5.6912 10.2973 7.03547 11.2705C7.02684 11.2748 7.01821 11.277 7.00958 11.2813C6.04291 11.6891 5.1755 12.2738 4.43108 13.0204C3.69035 13.7596 3.09977 14.6352 2.69195 15.5989C2.2913 16.5424 2.07523 17.5539 2.05541 18.5787C2.05484 18.6018 2.05888 18.6247 2.06729 18.6461C2.07571 18.6676 2.08833 18.6871 2.10442 18.7036C2.12051 18.7201 2.13973 18.7332 2.16096 18.7421C2.18219 18.7511 2.205 18.7557 2.22803 18.7557H3.52267C3.61762 18.7557 3.69314 18.6802 3.69529 18.5874C3.73845 16.9216 4.40735 15.3616 5.58979 14.1791C6.81323 12.9557 8.438 12.2825 10.1685 12.2825C11.899 12.2825 13.5238 12.9557 14.7472 14.1791C15.9297 15.3616 16.5986 16.9216 16.6417 18.5874C16.6439 18.6823 16.7194 18.7557 16.8143 18.7557H18.109C18.132 18.7557 18.1548 18.7511 18.1761 18.7421C18.1973 18.7332 18.2165 18.7201 18.2326 18.7036C18.2487 18.6871 18.2613 18.6676 18.2697 18.6461C18.2781 18.6247 18.2822 18.6018 18.2816 18.5787C18.26 17.5473 18.0464 16.544 17.6451 15.5967V15.5967ZM10.1685 10.6426C9.17811 10.6426 8.24596 10.2563 7.5447 9.55508C6.84343 8.85382 6.4572 7.92167 6.4572 6.93127C6.4572 5.94087 6.84343 5.00872 7.5447 4.30746C8.24596 3.60619 9.17811 3.21996 10.1685 3.21996C11.1589 3.21996 12.0911 3.60619 12.7923 4.30746C13.4936 5.00872 13.8798 5.94087 13.8798 6.93127C13.8798 7.92167 13.4936 8.85382 12.7923 9.55508C12.0911 10.2563 11.1589 10.6426 10.1685 10.6426Z" fill="#1890FF"/>
</svg>
