<svg width="26" height="26" viewBox="0 0 26 26" fill="none" xmlns="http://www.w3.org/2000/svg">
<circle cx="13.2962" cy="12.9629" r="12.4815" fill="#A6DBFF"/>
<mask id="mask0_69_4585" style="mask-type:luminance" maskUnits="userSpaceOnUse" x="0" y="0" width="26" height="26">
<circle cx="13.2962" cy="12.9629" r="12.4815" fill="white"/>
</mask>
<g mask="url(#mask0_69_4585)">
<path d="M10.4722 8.03955C10.4722 8.03955 13.8343 7.47775 15.0741 6.11581C16.1946 4.87304 16.1778 3.47705 16.1778 3.47705" stroke="#2150B7" stroke-width="0.680971" stroke-linecap="round" stroke-linejoin="round"/>
<path d="M13.9867 3.98779C13.9867 3.98779 14.7338 6.84804 13.0188 8.72071" stroke="#2150B7" stroke-width="0.680971" stroke-linecap="round" stroke-linejoin="round"/>
<path d="M12.4757 5.34985C12.4757 5.34985 12.7983 6.3885 12.3398 7.35889" stroke="#2150B7" stroke-width="0.680971" stroke-linecap="round" stroke-linejoin="round"/>
<path fill-rule="evenodd" clip-rule="evenodd" d="M15.0902 23.6582C15.0902 23.6582 17.6143 22.7506 16.8482 22.9734C16.3649 23.1139 15.8359 23.287 15.3959 23.4781C14.411 23.9037 14.4789 25.1973 15.2091 25.6401C15.9392 26.0998 18.9618 26.1677 19.9465 24.942C21.8315 22.848 18.6392 17.128 18.6392 17.128C18.6392 17.128 17.875 16.4811 15.0902 16.1234C12.3224 15.7661 9.69038 17.5025 9.69038 17.5025C9.69038 17.5025 8.06007 18.7453 6.87143 22.8139C6.0224 25.7081 9.45265 25.4699 9.45265 25.4699C9.45265 25.4699 10.5223 27.2402 12.5941 27.1892C15.107 27.1383 16.4317 26.6956 17.3317 25.9806C17.3317 25.9806 15.4353 25.9059 15.0145 25.4699C14.6882 25.1318 15.0902 23.6582 15.0902 23.6582Z" fill="#91D5FF"/>
<path fill-rule="evenodd" clip-rule="evenodd" d="M19.4603 18.4189C19.4603 18.4189 20.4282 16.7335 19.5622 16.1206C18.679 15.4907 19.0358 15.5586 18.8151 14.8608C18.3736 13.7883 17.1 13.567 17.1 13.567C17.1 13.567 15.5718 13.4646 14.2982 13.567C13.0247 13.6691 10.8002 14.6054 10.8002 14.6054C10.8002 14.6054 8.04936 16.6313 10.4097 17.6698C11.5643 18.7081 12.3285 19.8319 12.3285 19.8319C12.3285 19.8319 17.083 16.2057 18.8151 17.1759L19.4603 18.4189Z" fill="#43BCFF"/>
<path fill-rule="evenodd" clip-rule="evenodd" d="M13.9991 10.2867C17.7348 11.172 16.716 7.39258 16.716 7.39258C16.716 7.39258 16.4273 7.63075 6.20499 11.4954C5.06729 14.0491 10.8577 14.1342 10.8577 14.1342L10.6709 16.6878L12.318 18.901C12.318 18.901 13.5526 17.5992 14.9815 16.5011C15.8126 15.8626 16.8537 15.2941 17.3782 15.0875L15.833 10.3546" fill="#D7F0FF"/>
<path fill-rule="evenodd" clip-rule="evenodd" d="M16.716 7.39258C16.716 7.39258 16.4273 7.63075 6.20499 11.4954C5.06729 14.0491 10.8577 14.1342 10.8577 14.1342L10.6709 16.6878L12.2977 18.9612C12.2977 18.9612 13.951 17.1813 15.1061 16.3324C16.2613 15.4835 17.5906 15.0715 17.5906 15.0715L15.9189 10.2857C15.9189 10.2857 16.5303 9.75079 16.6308 9.45205C16.9845 8.4014 16.716 7.39258 16.716 7.39258Z" fill="white"/>
<path d="M13.9991 10.2867C17.7348 11.172 16.716 7.39258 16.716 7.39258C16.716 7.39258 16.4273 7.63075 6.20499 11.4954C5.06729 14.0491 10.8577 14.1342 10.8577 14.1342L10.6709 16.6878" stroke="#2150B7" stroke-width="0.520062" stroke-linecap="round" stroke-linejoin="round"/>
<path d="M17.8418 15.0535C15.6513 15.1558 12.2551 19.0031 12.2551 19.0031L10.4722 16.4835" stroke="#2150B7" stroke-width="0.520062" stroke-linecap="round" stroke-linejoin="round"/>
<path d="M10.8002 14.7131C10.8002 14.7131 8.04936 16.739 10.4097 17.7775C11.7851 19.1056 12.3285 19.9396 12.3285 19.9396C12.3285 19.9396 17.2189 15.8197 19.3245 17.284" stroke="#2150B7" stroke-width="0.520062" stroke-linecap="round" stroke-linejoin="round"/>
<path d="M9.66023 17.437C9.66023 17.437 7.91123 18.6459 6.84145 22.7486C6.11145 25.5576 9.42267 25.4045 9.42267 25.4045" stroke="#2150B7" stroke-width="0.520062" stroke-linecap="round" stroke-linejoin="round"/>
<path d="M7.92505 22.4432C7.92505 22.4432 9.3684 21.9665 9.94574 23.5157" stroke="#2150B7" stroke-width="0.520062" stroke-linecap="round" stroke-linejoin="round"/>
<path fill-rule="evenodd" clip-rule="evenodd" d="M11.3213 21.1824H14.2759L13.8006 26.1535H11.8137L11.3213 21.1824Z" fill="white"/>
<path fill-rule="evenodd" clip-rule="evenodd" d="M11.3213 21.1824H14.2759L13.8006 26.1535H11.8137L11.3213 21.1824Z" stroke="#2150B7" stroke-width="0.520062" stroke-linecap="round" stroke-linejoin="round"/>
<path d="M10.1155 20.5012L9.96265 23.5317" stroke="#2150B7" stroke-width="0.520062" stroke-linecap="round" stroke-linejoin="round"/>
<path fill-rule="evenodd" clip-rule="evenodd" d="M7.92629 24.9732C7.92629 24.9732 7.85854 24.0539 8.72438 23.7134C10.0998 23.1856 11.4245 24.1559 11.4583 25.2965C11.4922 26.4541 10.3885 26.3011 9.98111 26.0968C9.57341 25.9095 9.45454 25.3307 8.94513 25.4327C8.45286 25.5518 7.97723 25.5518 7.92629 24.9732Z" fill="#E6F7FF"/>
<path fill-rule="evenodd" clip-rule="evenodd" d="M7.92629 24.9732C7.92629 24.9732 7.85854 24.0539 8.72438 23.7134C10.0998 23.1856 11.4245 24.1559 11.4583 25.2965C11.4922 26.4541 10.3885 26.3011 9.98111 26.0968C9.57341 25.9095 9.45454 25.3307 8.94513 25.4327C8.45286 25.5518 7.97723 25.5518 7.92629 24.9732Z" stroke="#2150B7" stroke-width="0.520062" stroke-linecap="round" stroke-linejoin="round"/>
<path fill-rule="evenodd" clip-rule="evenodd" d="M11.3208 11.1381C11.3208 11.3254 11.168 11.4786 10.9812 11.4786C10.7943 11.4786 10.6416 11.3254 10.6416 11.1381C10.6416 10.9507 10.7943 10.7976 10.9812 10.7976C11.168 10.7976 11.3208 10.9338 11.3208 11.1381Z" fill="#2150B7"/>
<path d="M16.0308 10.3662L17.5301 15.0146" stroke="#2150B7" stroke-width="0.520062" stroke-linecap="round" stroke-linejoin="round"/>
<path d="M18.6978 17.2666C18.6978 17.2666 21.8902 22.8846 20.0053 24.9788C19.0204 26.2043 15.9981 26.1192 15.2679 25.6766C14.5376 25.2169 14.4698 23.9401 15.4545 23.5145C16.6092 23.0038 18.3244 22.6464 18.3244 22.6464" stroke="#2150B7" stroke-width="0.520062" stroke-linecap="round" stroke-linejoin="round"/>
<path d="M17.2308 22.8846L17.095 21.012" stroke="#2150B7" stroke-width="0.520062" stroke-linecap="round" stroke-linejoin="round"/>
<path d="M17.095 13.6917C17.095 13.6917 18.3857 13.9131 18.8102 14.9857C19.0308 15.6666 18.6911 15.6156 19.5572 16.2453C20.4402 16.8752 19.4553 18.4414 19.4553 18.4414" stroke="#2150B7" stroke-width="0.520062" stroke-linecap="round" stroke-linejoin="round"/>
<path fill-rule="evenodd" clip-rule="evenodd" d="M14.8485 23.6335L14.0844 23.2251C14.0844 23.2251 14.4751 24.0763 12.5561 24.1783C11.775 24.2123 11.6901 25.5913 13.1335 25.9148C15.2902 26.3746 16.2409 24.6039 14.8485 23.6335Z" fill="#E6F7FF"/>
<path fill-rule="evenodd" clip-rule="evenodd" d="M14.8485 23.6335L14.0844 23.2251C14.0844 23.2251 14.4751 24.0763 12.5561 24.1783C11.775 24.2123 11.6901 25.5913 13.1335 25.9148C15.2902 26.3746 16.2409 24.6039 14.8485 23.6335Z" stroke="#2150B7" stroke-width="0.520062" stroke-linecap="round" stroke-linejoin="round"/>
</g>
</svg>
